<svg width="151" height="192" viewBox="0 0 151 192" fill="none" xmlns="http://www.w3.org/2000/svg">
<g clip-path="url(#clip0)">
<rect width="151" height="192" fill="white"/>
<path d="M67.5739 86.919C67.5467 85.5745 67.2285 84.4477 66.7718 83.8266L66.4105 85.5126V83.4877C66.2519 83.3726 66.0663 83.3207 65.881 83.3398C64.9925 83.4366 64.3062 85.2034 64.3471 87.2847C64.388 89.366 65.1425 90.9768 66.031 90.88C66.9195 90.7832 67.6148 89.0084 67.5739 86.919Z" fill="#57B894"/>
<path opacity="0.1" d="M67.358 87.9328C66.9854 88.0296 66.6241 88.3012 66.2514 88.355C65.8787 88.4087 65.4697 88.199 65.2356 87.5187C65.1084 87.1529 65.0448 86.6904 64.938 86.2897C64.8554 85.9624 64.7169 85.6585 64.5312 85.397C64.4014 86.0122 64.3433 86.6455 64.3585 87.2793C64.3994 89.3607 65.1538 90.9687 66.0423 90.8719C66.7877 90.7913 67.3898 89.5274 67.5398 87.8978C67.4787 87.9053 67.418 87.917 67.358 87.9328V87.9328Z" fill="black"/>
<path d="M141.399 73.0192C140.604 72.0753 139.711 71.5106 139.018 71.4326L139.729 72.9385L138.559 71.4622C138.377 71.5082 138.212 71.6212 138.088 71.7849C137.5 72.5916 138.032 74.4202 139.275 75.8965C140.518 77.3728 142.001 77.924 142.588 77.1281C143.174 76.3321 142.635 74.4874 141.399 73.0192Z" fill="#57B894"/>
<path opacity="0.1" d="M141.822 73.9254C141.608 74.2965 141.504 74.7886 141.265 75.1301C141.026 75.4716 140.608 75.6545 140.043 75.356C139.736 75.1946 139.42 74.9096 139.111 74.7079C138.86 74.5361 138.583 74.4272 138.295 74.3879C138.56 74.9406 138.887 75.4481 139.268 75.8965C140.511 77.3728 141.995 77.924 142.581 77.1281C143.072 76.4612 142.776 75.0602 141.935 73.7533C141.894 73.8071 141.856 73.8646 141.822 73.9254Z" fill="black"/>
<path d="M82.983 78.521L79.0699 75.8319C79.0699 75.8319 69.6123 74.2884 70.9166 68.8861C72.221 63.4837 78.745 68.8861 78.745 68.8861L82.983 72.3361V78.521Z" fill="#FFC1C7"/>
<path opacity="0.1" d="M82.983 78.521L79.0699 75.8319C79.0699 75.8319 69.6123 74.2884 70.9166 68.8861C72.221 63.4837 78.745 68.8861 78.745 68.8861L82.983 72.3361V78.521Z" fill="black"/>
<path d="M97.3308 51.122C97.3308 51.122 87.8754 59.2269 87.8754 56.5244C87.8754 54.9109 86.2257 49.9281 84.9077 46.2198C84.0351 43.762 83.317 41.8608 83.317 41.8608L93.0883 38.7738C92.7878 40.6442 92.8249 42.5686 93.1973 44.4208C93.7736 47.2127 95.2595 49.6216 97.3308 51.122V51.122Z" fill="#FFC1C7"/>
<path d="M77.7724 119.917C77.7724 119.917 70.2735 139.598 72.8799 146.928C72.8799 146.928 64.7289 176.258 62.1202 177.414C59.5115 178.571 68.6419 180.502 68.6419 180.502C68.6419 180.502 79.3971 163.523 80.0448 150.015C80.6924 136.508 92.4406 122.622 92.4406 122.622L77.7724 119.917Z" fill="#FFC1C7"/>
<path d="M95.0425 127.914C95.0425 127.914 99.2805 144.124 104.825 148.754C104.825 148.754 116.239 171.135 114.596 178.081C114.596 178.081 121.118 179.24 121.445 178.081C121.445 178.081 118.509 153.769 111.336 144.124C104.162 134.478 107.441 122.891 107.441 122.891L95.0425 127.914Z" fill="#FFC1C7"/>
<path d="M66.3514 177.802C66.3514 177.802 62.4383 173.943 59.5047 177.03C56.571 180.117 51.3514 179.345 47.4383 177.802C43.5253 176.258 43.8525 180.117 52.9829 185.132C62.1134 190.147 67.3308 191.317 67.3308 191.317C67.3308 191.317 68.6351 185.132 68.6351 183.599C68.6351 182.067 69.4464 179.17 69.4464 179.17L66.3514 177.802Z" fill="#F2F2F2"/>
<path d="M117.875 177.31C117.875 177.31 113.962 174.621 113.31 179.625C112.658 184.629 103.2 187.73 103.2 187.73C103.2 187.73 98.6351 192.745 112.658 191.193C126.681 189.642 125.702 186.563 125.702 186.563L121.261 176.575L117.875 177.31Z" fill="#F2F2F2"/>
<path d="M82.983 102.061C82.983 102.061 72.8731 119.04 76.7862 120.968C80.6992 122.896 80.3743 117.881 84.285 123.283C88.1958 128.686 98.3079 125.972 99.6123 124.827C100.917 123.681 104.178 118.642 106.786 119.04C109.395 119.438 102.541 99.3586 102.541 99.3586L82.983 102.061Z" fill="#3F3D56"/>
<path opacity="0.1" d="M92.3157 42.7563C90.9204 44.2971 89.9342 46.9109 87.8754 46.9109C86.8575 46.9127 85.8492 46.6779 84.9077 46.2198C84.0351 43.762 83.317 41.8608 83.317 41.8608L93.0883 38.7738C92.7702 40.9842 91.9816 41.1859 92.3157 42.7563Z" fill="black"/>
<path d="M87.8754 46.1042C92.1976 46.1042 95.7015 41.9578 95.7015 36.843C95.7015 31.7282 92.1976 27.5818 87.8754 27.5818C83.5532 27.5818 80.0493 31.7282 80.0493 36.843C80.0493 41.9578 83.5532 46.1042 87.8754 46.1042Z" fill="#FFC1C7"/>
<path d="M92.4406 49.9657C92.4406 49.9657 89.0593 54.0262 87.4891 54.3113C85.9189 54.5963 80.0448 66.5573 81.6786 76.2057C83.3125 85.8541 79.7221 105.92 81.3537 107.076C82.9852 108.233 109.077 102.833 109.077 102.833L92.4406 49.9657Z" fill="#F2F2F2"/>
<path d="M95.7015 48.035C95.7015 48.035 89.8319 45.7197 87.8754 58.0679C85.9189 70.4161 83.3102 59.9987 83.3102 75.8158C83.3102 91.6329 82.3308 97.4279 83.9623 110.932C85.5939 124.437 86.896 124.44 84.9395 129.07C82.9829 133.701 105.809 132.545 111.354 123.668C116.898 114.791 109.722 81.6054 106.788 76.5876C103.855 71.5697 103.853 56.1371 101.562 52.2783C100.878 51.1397 100.006 50.1768 98.9984 49.4476C97.9912 48.7183 96.8697 48.2378 95.7015 48.035V48.035Z" fill="#5F78EA"/>
<path d="M95.5265 123.568L92.6383 119.293L83.4193 67.2269L89.6161 53.5395C90.1395 52.3824 90.8921 51.3927 91.8095 50.6551C92.7268 49.9174 93.7816 49.4539 94.8834 49.3042C95.9791 49.1447 97.091 49.3066 98.1214 49.7755C99.1517 50.2445 100.069 51.0061 100.792 51.9933C109.761 64.078 114.262 101.55 114.449 103.139L114.467 103.29L113.558 106.089L108.786 118.747L95.5265 123.568ZM93.5473 118.787L95.8742 122.229L108.063 117.782L112.644 105.632L113.46 103.139C113.138 100.51 108.554 64.1936 100.053 52.7435C99.4255 51.9036 98.6355 51.2558 97.7505 50.8555C96.8654 50.4552 95.9117 50.3143 94.9706 50.4448C94.0296 50.5753 93.1292 50.9734 92.3464 51.605C91.5635 52.2366 90.9215 53.083 90.475 54.0719L84.4487 67.3909L93.5473 118.787Z" fill="#2F2E41"/>
<path d="M75.809 71.5751L67.3353 62.6555C67.244 62.5584 67.1852 62.4256 67.1697 62.2814C67.1543 62.1372 67.1832 61.9913 67.2513 61.8702L67.3558 61.682C67.3921 61.6151 67.4405 61.5586 67.4974 61.5165C67.5544 61.4744 67.6185 61.4477 67.6853 61.4385C67.752 61.4292 67.8196 61.4376 67.8832 61.463C67.9469 61.4883 68.005 61.5301 68.0534 61.5852L75.7795 70.0558C75.8684 70.1514 75.94 70.2673 75.9898 70.3966C76.0397 70.5259 76.0669 70.6659 76.0696 70.808C76.0724 70.9501 76.0507 71.0913 76.0059 71.2232C75.9611 71.3551 75.8941 71.4748 75.809 71.5751V71.5751Z" fill="#5F78EA"/>
<path d="M75.8091 71.5751L67.3353 62.6555C67.244 62.5584 67.1852 62.4256 67.1697 62.2814C67.1543 62.1372 67.1832 61.9913 67.2513 61.8702L67.3558 61.682L75.7886 70.6313C75.8444 70.6902 75.8893 70.762 75.9207 70.8423C75.9521 70.9225 75.9693 71.0095 75.9712 71.098C75.9732 71.1864 75.9598 71.2743 75.9319 71.3564C75.904 71.4385 75.8622 71.5129 75.8091 71.5751V71.5751Z" fill="#192534"/>
<path d="M100.919 73.5032C100.919 73.5032 88.8525 72.3469 86.571 67.3183C84.2896 62.2897 78.4177 65.003 80.0493 67.3183C81.6809 69.6336 81.3536 75.036 85.9189 75.4232C90.4841 75.8104 101.896 78.521 101.896 78.521L100.919 73.5032Z" fill="#FFC1C7"/>
<path d="M113.962 103.217C113.962 103.217 105.809 103.989 103.853 114.022C101.896 124.055 93.0928 119.04 93.0928 119.04C93.0928 119.04 92.1134 145.28 106.461 138.721C120.809 132.163 124.072 119.812 124.072 118.268C124.072 116.725 114.29 107.464 113.962 103.217Z" fill="#2F2E41"/>
<path opacity="0.1" d="M93.745 120.968C93.745 120.968 102.541 125.986 104.505 115.953C106.368 106.396 113.846 105.242 114.555 105.154C114.25 104.562 114.048 103.903 113.962 103.217C113.962 103.217 105.809 103.989 103.853 114.022C101.896 124.055 93.0928 119.04 93.0928 119.04C93.0928 119.04 92.7747 127.605 95.1766 133.725C93.4882 127.882 93.745 120.968 93.745 120.968Z" fill="black"/>
<path opacity="0.1" d="M124.002 118.857C124.04 118.666 124.064 118.472 124.072 118.276C124.072 116.956 116.912 109.983 114.64 105.339C115.121 108.926 121.775 115.77 124.002 118.857Z" fill="black"/>
<path d="M77.7724 30.3462C77.3179 32.035 78.7881 33.7425 80.272 33.92C81.7559 34.0975 83.1943 33.2558 84.5532 32.5029C85.9121 31.7499 87.43 31.0454 88.8821 31.5025C90.4727 32 91.5317 33.7506 92.2384 35.4985C92.8554 37.0273 93.3052 38.6431 93.5768 40.3066C93.8677 42.0867 94.0017 44.0444 95.0357 45.3889C96.0696 46.7334 97.7853 47.0965 99.3532 47.0884C100.921 47.0803 102.507 46.8195 104.018 47.2766C107.018 48.2017 108.875 51.7378 109.945 55.1718C111.015 58.6057 111.658 62.3462 113.597 65.2047C115.212 67.5926 117.569 69.1066 119.93 70.3624C121.12 70.9943 122.354 71.5832 123.654 71.7284C124.954 71.8736 126.349 71.516 127.29 70.4618C128.351 69.284 128.692 67.4877 128.981 65.8044C129.401 63.3627 129.821 60.8538 129.474 58.3933C129.019 55.1664 127.267 52.3294 126.865 49.0891C126.474 45.9375 127.394 42.7563 127.301 39.5724C127.144 34.2427 123.829 29.2464 119.482 27.7862C117.891 27.2484 116.221 27.1516 114.694 26.4417C112.703 25.5032 111.17 23.6155 109.543 21.9671C105.654 18.0361 101.011 15.2914 96.0196 13.9724C92.6701 13.0931 88.7071 13.0797 86.3393 16.0081C85.3781 17.1993 84.7486 18.8101 83.5215 19.606C82.8921 20.0175 82.1694 20.1654 81.4923 20.4424C78.1473 21.803 76.2249 26.7348 77.5224 30.6178" fill="#2F2E41"/>
<path opacity="0.1" d="M125.622 67.8696C124.322 67.7244 123.088 67.1355 121.898 66.5035C119.537 65.2477 117.182 63.7338 115.564 61.3459C113.626 58.4874 112.981 54.7496 111.913 51.3129C110.845 47.8763 108.986 44.3429 105.986 43.4178C104.475 42.9499 102.882 43.2215 101.321 43.2296C99.76 43.2376 98.0602 42.8961 97.0036 41.5301C95.9469 40.164 95.8356 38.2279 95.5447 36.4477C95.2734 34.7841 94.8236 33.1684 94.2063 31.6397C93.4996 29.8918 92.4361 28.1439 90.85 27.6437C89.3979 27.1866 87.8799 27.8911 86.5211 28.644C85.1622 29.397 83.7351 30.2387 82.2399 30.0612C80.7447 29.8837 79.2858 28.1788 79.7403 26.4874L79.513 26.7563C79.0242 25.235 78.9699 23.566 79.3585 22.0047C77.4338 24.1425 76.5726 27.6787 77.5542 30.6097L77.7815 30.3408C77.327 32.0296 78.7972 33.7371 80.2811 33.9146C81.765 34.0921 83.2034 33.2504 84.5623 32.4975C85.9212 31.7445 87.4391 31.04 88.8912 31.4971C90.4818 31.9946 91.5408 33.7452 92.2475 35.4931C92.8645 37.022 93.3143 38.6377 93.5859 40.3012C93.8768 42.0813 94.0108 44.039 95.0448 45.3835C96.0787 46.7281 97.7944 47.0911 99.3623 47.083C100.93 47.075 102.516 46.8141 104.028 47.2713C107.027 48.1963 108.884 51.7324 109.954 55.1664C111.024 58.6003 111.667 62.3408 113.606 65.1993C115.221 67.5872 117.578 69.1012 119.939 70.357C121.129 70.9889 122.363 71.5778 123.663 71.723C124.963 71.8682 126.358 71.5106 127.299 70.4565C128.099 69.5691 128.49 68.3267 128.758 67.0467C127.818 67.724 126.715 68.0134 125.622 67.8696Z" fill="black"/>
<path d="M92.4406 53.4373C92.4406 53.4373 91.4612 61.9267 95.0493 63.8575C98.6374 65.7882 101.244 72.3361 101.244 72.3361L98.3102 73.1079C98.3102 73.1079 97.3308 78.5103 99.9395 80.0538C102.548 81.5973 109.722 80.0538 109.722 80.0538C109.722 80.0538 112.985 78.123 110.374 71.9489C107.763 65.7748 100.269 52.281 100.269 52.281C100.269 52.281 96.3537 47.2632 92.4406 53.4373Z" fill="#5F78EA"/>
<path d="M93.395 39.7607C94.2623 39.7607 94.9653 38.5134 94.9653 36.9748C94.9653 35.4362 94.2623 34.1889 93.395 34.1889C92.5278 34.1889 91.8248 35.4362 91.8248 36.9748C91.8248 38.5134 92.5278 39.7607 93.395 39.7607Z" fill="#FFC1C7"/>
<path d="M93.395 38.2118C93.828 38.2118 94.179 37.7964 94.179 37.284C94.179 36.7717 93.828 36.3563 93.395 36.3563C92.9621 36.3563 92.6111 36.7717 92.6111 37.284C92.6111 37.7964 92.9621 38.2118 93.395 38.2118Z" fill="#F2F2F2"/>
<path d="M93.0914 38.8858C93.3187 38.3511 93.3457 37.8241 93.1517 37.7086C92.9577 37.5932 92.6163 37.9331 92.389 38.4678C92.1618 39.0025 92.1348 39.5295 92.3288 39.6449C92.5227 39.7604 92.8642 39.4205 93.0914 38.8858Z" fill="#F2F2F2"/>
<path d="M125.747 9.74252C125.72 8.41143 125.402 7.27126 124.945 6.65009L124.584 8.33614V6.31126C124.425 6.1961 124.239 6.14425 124.054 6.16336C123.166 6.26017 122.479 8.02689 122.52 10.1082C122.561 12.1896 123.316 13.8003 124.204 13.7035C125.093 13.6067 125.788 11.8319 125.747 9.74252Z" fill="#57B894"/>
<path opacity="0.1" d="M125.531 10.7563C125.158 10.8531 124.797 11.1247 124.424 11.1785C124.052 11.2323 123.643 11.0225 123.409 10.3422C123.281 9.97647 123.218 9.51395 123.111 9.11328C123.028 8.7859 122.89 8.48205 122.704 8.2205C122.574 8.8357 122.516 9.46903 122.532 10.1029C122.572 12.1842 123.327 13.7923 124.215 13.6955C124.961 13.6148 125.563 12.3509 125.713 10.7213C125.652 10.7288 125.591 10.7405 125.531 10.7563V10.7563Z" fill="black"/>
<path d="M142.222 119.441C143.251 118.903 144.017 118.115 144.326 117.375L142.883 117.623L144.474 116.859C144.502 116.642 144.472 116.42 144.387 116.225C143.971 115.291 142.329 115.219 140.72 116.063C139.111 116.908 138.143 118.346 138.559 119.29C138.975 120.234 140.611 120.285 142.222 119.441Z" fill="#57B894"/>
<path opacity="0.1" d="M141.354 119.589C141.126 119.22 140.786 118.93 140.602 118.543C140.417 118.155 140.422 117.628 140.863 117.112C141.09 116.843 141.436 116.574 141.706 116.305C141.931 116.091 142.116 115.824 142.249 115.52C141.719 115.616 141.202 115.797 140.713 116.058C139.104 116.902 138.136 118.341 138.552 119.285C138.902 120.067 140.115 120.245 141.447 119.782C141.419 119.716 141.388 119.651 141.354 119.589Z" fill="black"/>
<path d="M54.7349 131.81C55.7643 131.273 56.5301 130.485 56.8392 129.745L55.3962 129.993L56.9869 129.229C57.0154 129.012 56.9852 128.79 56.9005 128.594C56.4847 127.661 54.8417 127.589 53.2329 128.433C51.624 129.277 50.656 130.716 51.0719 131.66C51.4877 132.604 53.1238 132.655 54.7349 131.81Z" fill="#57B894"/>
<path opacity="0.1" d="M53.8669 131.958C53.6397 131.59 53.2988 131.3 53.1147 130.912C52.9307 130.525 52.9352 129.998 53.3761 129.482C53.6033 129.213 53.9487 128.944 54.2191 128.675C54.4443 128.461 54.6293 128.193 54.7622 127.89C54.232 127.986 53.7152 128.167 53.2261 128.428C51.6172 129.272 50.6492 130.711 51.065 131.654C51.415 132.437 52.6284 132.614 53.9601 132.152C53.9322 132.085 53.9011 132.021 53.8669 131.958Z" fill="black"/>
</g>
<defs>
<clipPath id="clip0">
<rect width="151" height="192" fill="white"/>
</clipPath>
</defs>
</svg>
